<?xml version="1.0" encoding="iso-8859-1"?>
<!-- Generator: Adobe Illustrator 19.0.0, SVG Export Plug-In . SVG Version: 6.00 Build 0)  -->
<svg version="1.1" id="Layer_1" xmlns="http://www.w3.org/2000/svg" xmlns:xlink="http://www.w3.org/1999/xlink" x="0px" y="0px"
	 viewBox="0 0 512 512" style="enable-background:new 0 0 512 512;" xml:space="preserve">
<g>
	<g>
		<g>
			<path d="M281.984,329.382v-102.53c0-4.465-3.618-8.084-8.084-8.084c-4.466,0-8.084,3.62-8.084,8.084v98.723h-19.631V108.396
				c0-4.208,3.423-7.632,7.631-7.632h4.368c4.208,0,7.632,3.423,7.632,7.632v92.049c0,4.465,3.618,8.084,8.084,8.084
				c4.466,0,8.084-3.62,8.084-8.084v-92.049c0-13.123-10.677-23.8-23.8-23.8h-4.368c-13.123,0-23.8,10.677-23.8,23.8v220.986
				c-6.56,4.243-10.914,11.616-10.914,19.994v19.209v92.55c0,13.123,10.677,23.8,23.8,23.8h26.194c13.123,0,23.8-10.677,23.8-23.8
				v-92.55v-19.209C292.896,340.998,288.544,333.625,281.984,329.382z M276.729,461.134c-0.001,4.207-3.423,7.631-7.633,7.631
				h-26.193c-4.208,0-7.631-3.423-7.631-7.631v-84.466h41.457V461.134z M276.729,360.5h-41.457v-11.125
				c0-3.396,2.231-6.279,5.304-7.265c0.347-0.111,0.7-0.191,1.055-0.251c0.068-0.012,0.136-0.022,0.205-0.031
				c0.355-0.051,0.71-0.084,1.068-0.084h26.192c0.358,0,0.714,0.033,1.068,0.084c0.069,0.01,0.138,0.02,0.207,0.031
				c0.354,0.06,0.705,0.14,1.051,0.25c3.074,0.986,5.306,3.87,5.306,7.266V360.5z"/>
			<path d="M273.9,495.832H238.1c-4.465,0-8.084,3.62-8.084,8.084c0,4.465,3.62,8.084,8.084,8.084H273.9
				c4.466,0,8.084-3.62,8.084-8.084C281.984,499.451,278.365,495.832,273.9,495.832z"/>
			<path d="M392.205,132.963h-41.752c-4.466,0-8.084,3.62-8.084,8.084c0,4.465,3.619,8.084,8.084,8.084h41.752
				c4.466,0,8.084-3.62,8.084-8.084C400.289,136.582,396.671,132.963,392.205,132.963z"/>
			<path d="M169.633,147.535c0-4.465-3.62-8.084-8.084-8.084h-41.753c-4.465,0-8.084,3.62-8.084,8.084
				c0,4.465,3.62,8.084,8.084,8.084h41.753C166.013,155.619,169.633,151.999,169.633,147.535z"/>
			<path d="M326.211,80.925L355.735,51.4c3.157-3.157,3.157-8.276,0-11.432c-3.158-3.157-8.276-3.157-11.433,0l-29.526,29.523
				c-3.157,3.157-3.157,8.276,0,11.432c1.579,1.578,3.649,2.368,5.717,2.368C322.562,83.292,324.632,82.503,326.211,80.925z"/>
			<path d="M185.79,207.655l-29.525,29.524c-3.157,3.157-3.157,8.276,0,11.432c1.578,1.579,3.648,2.368,5.716,2.368
				s4.138-0.789,5.716-2.368l29.525-29.523c3.157-3.157,3.157-8.276,0-11.432C194.066,204.498,188.947,204.498,185.79,207.655z"/>
			<path d="M252.756,57.922c4.466,0,8.084-3.62,8.084-8.084V8.084c0-4.465-3.619-8.084-8.084-8.084c-4.465,0-8.084,3.62-8.084,8.084
				v41.753C244.671,54.302,248.291,57.922,252.756,57.922z"/>
			<path d="M181.202,85.513c1.578,1.579,3.648,2.368,5.716,2.368s4.138-0.789,5.716-2.368c3.157-3.157,3.157-8.275,0-11.432
				L163.11,44.556c-3.156-3.158-8.275-3.157-11.432,0c-3.157,3.157-3.157,8.275,0,11.432L181.202,85.513z"/>
			<path d="M330.799,203.067c-3.158-3.157-8.277-3.157-11.432,0c-3.158,3.157-3.158,8.275-0.001,11.432l29.523,29.525
				c1.579,1.579,3.648,2.368,5.717,2.368c2.068,0,4.138-0.789,5.716-2.368c3.158-3.157,3.158-8.275,0.001-11.432L330.799,203.067z"
				/>
		</g>
	</g>
</g>
<g>
</g>
<g>
</g>
<g>
</g>
<g>
</g>
<g>
</g>
<g>
</g>
<g>
</g>
<g>
</g>
<g>
</g>
<g>
</g>
<g>
</g>
<g>
</g>
<g>
</g>
<g>
</g>
<g>
</g>
</svg>
