<?xml version="1.0" encoding="iso-8859-1"?>
<!-- Generator: Adobe Illustrator 19.0.0, SVG Export Plug-In . SVG Version: 6.00 Build 0)  -->
<svg version="1.1" id="Layer_1" xmlns="http://www.w3.org/2000/svg" xmlns:xlink="http://www.w3.org/1999/xlink" x="0px" y="0px"
	 viewBox="0 0 512 512" style="enable-background:new 0 0 512 512;" xml:space="preserve">
<rect style="fill:#88888F;" width="512" height="512"/>
<rect x="256" style="fill:#797781;" width="256" height="512"/>
<polygon style="fill:#F8F8F9;" points="91.429,117.291 194.309,220.17 220.167,194.31 117.286,91.429 195.048,91.429 
	195.048,54.857 54.857,54.857 54.857,195.048 91.429,195.048 "/>
<g>
	<polygon style="fill:#EDEDED;" points="420.571,394.714 317.691,291.833 291.833,317.691 394.709,420.571 316.952,420.571 
		316.952,457.143 457.143,457.143 457.143,316.952 420.571,316.952 	"/>
	<polygon style="fill:#EDEDED;" points="316.952,54.857 316.952,91.429 394.714,91.429 291.833,194.31 317.691,220.17 
		420.571,117.291 420.571,195.048 457.143,195.048 457.143,54.857 	"/>
</g>
<polygon style="fill:#F8F8F9;" points="194.309,291.834 91.429,394.714 91.429,316.952 54.857,316.952 54.857,457.143 
	195.048,457.143 195.048,420.571 117.291,420.571 220.169,317.694 "/>
<g>
</g>
<g>
</g>
<g>
</g>
<g>
</g>
<g>
</g>
<g>
</g>
<g>
</g>
<g>
</g>
<g>
</g>
<g>
</g>
<g>
</g>
<g>
</g>
<g>
</g>
<g>
</g>
<g>
</g>
</svg>
