<svg id="Gradient" height="512" viewBox="0 0 512 512" width="512" xmlns="http://www.w3.org/2000/svg" xmlns:xlink="http://www.w3.org/1999/xlink"><linearGradient id="linear-gradient" gradientUnits="userSpaceOnUse" x1="256" x2="256" y1="432" y2="80"><stop offset="0" stop-color="#12c2e9"/><stop offset=".5" stop-color="#c471ed"/><stop offset="1" stop-color="#f64f59"/></linearGradient><path d="m320.01 432a31.8 31.8 0 0 1 -22.628-9.372 32.04 32.04 0 0 1 0-45.257l89.376-89.376h-338.758a32 32 0 0 1 0-64h338.757l-89.376-89.377a32 32 0 0 1 45.256-45.257l144.006 144.003a32.04 32.04 0 0 1 0 45.257l-144 144.006a31.8 31.8 0 0 1 -22.633 9.373zm-11.31-20.687a16 16 0 0 0 22.63 0l144-144.006a16.019 16.019 0 0 0 0-22.629l-144-144.007a16 16 0 1 0 -22.63 22.629l103.029 103.034a8 8 0 0 1 -5.658 13.657h-358.071a16 16 0 0 0 0 32h358.07a8 8 0 0 1 5.658 13.657l-103.028 103.036a16.019 16.019 0 0 0 0 22.629z" fill="url(#linear-gradient)"/></svg>