<svg id="Gradient" height="512" viewBox="0 0 512 512" width="512" xmlns="http://www.w3.org/2000/svg" xmlns:xlink="http://www.w3.org/1999/xlink"><linearGradient id="linear-gradient" gradientUnits="userSpaceOnUse" x1="256" x2="256" y1="432" y2="80"><stop offset="0" stop-color="#12c2e9"/><stop offset=".5" stop-color="#c471ed"/><stop offset="1" stop-color="#f64f59"/></linearGradient><path d="m191.99 432a31.794 31.794 0 0 1 -22.627-9.372l-144.006-144.007a32.04 32.04 0 0 1 0-45.257l144.005-144.007a32 32 0 0 1 45.257 45.257l-89.376 89.377h338.757a32 32 0 0 1 0 64h-338.757l89.376 89.376a32 32 0 0 1 -22.629 54.633zm0-336.007a15.952 15.952 0 0 0 -11.315 4.679l-144 144.006a16.019 16.019 0 0 0 0 22.629l144 144.006a16 16 0 1 0 22.625-22.629l-103.029-103.034a8 8 0 0 1 5.658-13.657h358.071a16 16 0 0 0 0-32h-358.071a8 8 0 0 1 -5.658-13.657l103.029-103.036a15.993 15.993 0 0 0 -11.31-27.307z" fill="url(#linear-gradient)"/></svg>